
<svg xmlns="http://www.w3.org/2000/svg">
<filter id="grayscale">
<feColorMatrix type="saturate" values="0"/>
</filter>
<g filter="url(#grayscale)">
<svg xmlns="http://www.w3.org/2000/svg" viewBox="-28.1 139.5 638.46 412.88"> <svg xmlns="http://www.w3.org/2000/svg" viewBox="-5 -5 113.02999877929688 86.08999633789062" height="156" width="211" y="209" x="185" preserveAspectRatio="xMinYMin" style="overflow: visible;"><rect id="_1" dataName="1" class="cls-1" y="24.24" width="51.52" height="51.85" style="fill: #284389; fill-opacity: 1;"></rect><polygon id="_1" dataName="1" class="cls-1" points="51.52 76.08 10.67 63.12 10.67 11.27 51.52 24.23 51.52 76.08" style="fill: #25A1B0; fill-opacity: 1;"></polygon><polygon id="_1" dataName="1" class="cls-1" points="51.52 76.08 24.77 51.85 24.77 0 51.52 24.23 51.52 76.08" style="fill: #9ed14d; fill-opacity: 1;"></polygon><rect id="_1" dataName="1" class="cls-1" x="51.52" y="24.24" width="51.52" height="51.85" transform="translate(154.55 100.32) rotate(180)" style="fill: #284389; fill-opacity: 1;"></rect><polygon id="_1" dataName="1" class="cls-1" points="51.52 76.08 92.37 63.12 92.37 11.27 51.52 24.23 51.52 76.08" style="fill: #25A1B0; fill-opacity: 1;"></polygon><polygon id="_1" dataName="1" class="cls-1" points="51.52 76.08 78.27 51.85 78.27 0 51.52 24.23 51.52 76.08" style="fill: #82b436; fill-opacity: 1;"></polygon><polygon id="Layer_1-2" dataName="Layer 1" class="cls-1" points="78.27 51.85 64.89 71.94 51.52 76.08 78.27 51.85" style="fill: #FFFFFF; fill-opacity: 1;"></polygon><polygon id="Layer_1-2" dataName="Layer 1" class="cls-1" points="92.37 63.12 71.08 76.08 51.52 76.08 92.37 63.12" style="fill: #FFFFFF; fill-opacity: 1;"></polygon><polygon id="Layer_1-2" dataName="Layer 1" class="cls-1" points="78.27 51.85 64.89 71.94 51.52 76.08 78.27 51.85" style="fill: #FFFFFF; fill-opacity: 1;"></polygon><polygon id="Layer_1-2" dataName="Layer 1" class="cls-1" points="92.37 63.12 71.08 76.08 51.52 76.08 92.37 63.12" style="fill: #FFFFFF; fill-opacity: 1;"></polygon><polygon id="Layer_1-2" dataName="Layer 1" class="cls-1" points="24.77 51.85 38.14 71.94 51.52 76.08 24.77 51.85" style="fill: #FFFFFF; fill-opacity: 1;"></polygon><polygon id="Layer_1-2" dataName="Layer 1" class="cls-1" points="10.67 63.12 31.95 76.08 51.52 76.08 10.67 63.12" style="fill: #FFFFFF; fill-opacity: 1;"></polygon></svg> <svg y="418" viewBox="2.6700000762939453 12.020000457763672 498.4599914550781 63.45000076293945" x="41" height="63" width="498" style="overflow: visible;"><g fill="#122246" fill-opacity="1" style=""><path d="M22.95 60.77L22.95 60.77Q19.05 60.77 15.41 59.34Q11.77 57.91 8.87 55.05Q5.98 52.20 4.32 47.97Q2.67 43.75 2.67 38.09L2.67 38.09Q2.67 32.63 4.36 28.41Q6.04 24.18 8.91 21.29Q11.77 18.40 15.41 16.93Q19.05 15.47 22.95 15.47L22.95 15.47Q26.85 15.47 30.45 16.90Q34.06 18.33 36.92 21.16Q39.78 23.98 41.47 28.24Q43.16 32.50 43.16 38.09L43.16 38.09Q43.16 43.55 41.50 47.78Q39.84 52 36.95 54.89Q34.06 57.79 30.45 59.28Q26.85 60.77 22.95 60.77ZM22.95 57.27L22.95 57.27Q26.85 57.27 29.25 54.60Q31.66 51.94 32.79 47.58Q33.93 43.23 33.93 38.09L33.93 38.09Q33.93 32.95 32.79 28.60Q31.66 24.24 29.25 21.58Q26.85 18.91 22.95 18.91L22.95 18.91Q19.05 18.91 16.57 21.58Q14.11 24.24 12.97 28.60Q11.83 32.95 11.83 38.09L11.83 38.09Q11.83 43.23 12.97 47.58Q14.11 51.94 16.57 54.60Q19.05 57.27 22.95 57.27ZM62.03 59.67L45.97 59.67L45.97 57.01L50.20 56.16Q50.26 53.76 50.26 50.93Q50.26 48.10 50.26 46.02L50.26 46.02L50.26 42.58Q50.26 39.91 50.23 38.32Q50.20 36.73 50.07 34.78L50.07 34.78L45.52 34.19L45.52 31.72L56.37 27.63L57.41 28.28L57.87 33.28Q62.87 27.63 68.92 27.63L68.92 27.63Q73.14 27.63 75.45 30.42Q77.76 33.22 77.76 39.26L77.76 39.26L77.76 46.02Q77.76 48.23 77.76 51.03Q77.76 53.82 77.82 56.23L77.82 56.23L81.78 57.01L81.78 59.67L65.73 59.67L65.73 57.01L69.89 56.16Q69.96 53.76 69.96 50.99Q69.96 48.23 69.96 46.02L69.96 46.02L69.96 39.84Q69.96 36.01 68.92 34.55Q67.88 33.09 65.41 33.09L65.41 33.09Q61.96 33.09 58.13 36.27L58.13 36.27L58.13 46.02Q58.13 48.16 58.13 50.96Q58.13 53.76 58.19 56.23L58.19 56.23L62.03 57.01L62.03 59.67ZM100.07 59.67L83.17 59.67L83.17 57.01L87.59 56.16Q87.65 53.63 87.68 51.09Q87.72 48.55 87.72 46.02L87.72 46.02L87.72 18.13L82.97 17.48L82.97 14.95L94.80 12.02L95.78 12.61L95.52 21.77L95.52 46.02Q95.52 48.55 95.55 51.09Q95.58 53.63 95.65 56.16L95.65 56.16L100.07 57.01L100.07 59.67ZM117.83 59.67L101.71 59.67L101.71 57.01L106.00 56.16Q106.06 53.76 106.06 50.93Q106.06 48.10 106.06 46.02L106.06 46.02L106.06 42.97Q106.06 40.30 106.03 38.51Q106.00 36.73 105.87 34.78L105.87 34.78L101.25 34.19L101.25 31.72L112.95 27.63L113.99 28.28L113.80 37.44L113.80 46.02Q113.80 48.10 113.80 50.93Q113.80 53.76 113.86 56.23L113.86 56.23L117.83 57.01L117.83 59.67ZM109.90 21.58L109.90 21.58Q107.82 21.58 106.39 20.28Q104.96 18.98 104.96 16.97L104.96 16.97Q104.96 14.88 106.39 13.59Q107.82 12.28 109.90 12.28L109.90 12.28Q111.98 12.28 113.37 13.59Q114.77 14.88 114.77 16.97L114.77 16.97Q114.77 18.98 113.37 20.28Q111.98 21.58 109.90 21.58ZM135.85 59.67L119.79 59.67L119.79 57.01L124.02 56.16Q124.08 53.76 124.08 50.93Q124.08 48.10 124.08 46.02L124.08 46.02L124.08 42.58Q124.08 39.91 124.05 38.32Q124.02 36.73 123.89 34.78L123.89 34.78L119.34 34.19L119.34 31.72L130.19 27.63L131.23 28.28L131.69 33.28Q136.69 27.63 142.74 27.63L142.74 27.63Q146.96 27.63 149.27 30.42Q151.58 33.22 151.58 39.26L151.58 39.26L151.58 46.02Q151.58 48.23 151.58 51.03Q151.58 53.82 151.64 56.23L151.64 56.23L155.61 57.01L155.61 59.67L139.55 59.67L139.55 57.01L143.71 56.16Q143.78 53.76 143.78 50.99Q143.78 48.23 143.78 46.02L143.78 46.02L143.78 39.84Q143.78 36.01 142.74 34.55Q141.70 33.09 139.23 33.09L139.23 33.09Q135.78 33.09 131.95 36.27L131.95 36.27L131.95 46.02Q131.95 48.16 131.95 50.96Q131.95 53.76 132.01 56.23L132.01 56.23L135.85 57.01L135.85 59.67ZM173.04 30.75L173.04 30.75Q171.48 30.75 169.95 31.75Q168.43 32.76 167.35 35.03Q166.28 37.31 166.02 41.21L166.02 41.21L174.93 41.21Q177.27 41.21 178.05 40.23Q178.83 39.26 178.83 37.51L178.83 37.51Q178.83 34.52 177.14 32.63Q175.45 30.75 173.04 30.75ZM173.04 60.58L173.04 60.58Q168.49 60.58 165.05 58.63Q161.60 56.68 159.65 53.01Q157.70 49.34 157.70 44.27L157.70 44.27Q157.70 39.06 159.94 35.33Q162.19 31.59 165.79 29.61Q169.40 27.63 173.50 27.63L173.50 27.63Q177.33 27.63 180.19 29.25Q183.05 30.88 184.64 33.80Q186.24 36.73 186.24 40.69L186.24 40.69Q186.24 42.77 185.85 44.27L185.85 44.27L165.96 44.27Q166.22 49.86 168.91 52.65Q171.61 55.45 175.71 55.45L175.71 55.45Q178.57 55.45 180.55 54.31Q182.53 53.17 184.16 51.35L184.16 51.35L186.04 53.04Q184.16 56.62 180.87 58.60Q177.59 60.58 173.04 60.58ZM207.33 20.22L201.87 19.63L201.87 16.58L221.69 16.58L221.69 19.63L215.97 20.28Q215.91 24.31 215.87 28.44Q215.84 32.56 215.84 36.73L215.84 36.73L215.84 40.69Q215.84 44.14 215.87 48.10Q215.91 52.06 215.97 56.16L215.97 56.16L229.10 56.16L230.92 47.19L235.47 47.19L234.82 59.67L201.87 59.67L201.87 56.62L207.33 56.03Q207.46 51.94 207.46 47.94Q207.46 43.94 207.46 40.23L207.46 40.23L207.46 36.73Q207.46 32.50 207.46 28.37Q207.46 24.24 207.33 20.22L207.33 20.22ZM253.36 30.75L253.36 30.75Q251.80 30.75 250.27 31.75Q248.75 32.76 247.67 35.03Q246.60 37.31 246.34 41.21L246.34 41.21L255.25 41.21Q257.59 41.21 258.37 40.23Q259.14 39.26 259.14 37.51L259.14 37.51Q259.14 34.52 257.45 32.63Q255.77 30.75 253.36 30.75ZM253.36 60.58L253.36 60.58Q248.81 60.58 245.37 58.63Q241.92 56.68 239.97 53.01Q238.02 49.34 238.02 44.27L238.02 44.27Q238.02 39.06 240.26 35.33Q242.50 31.59 246.11 29.61Q249.72 27.63 253.81 27.63L253.81 27.63Q257.65 27.63 260.51 29.25Q263.37 30.88 264.96 33.80Q266.56 36.73 266.56 40.69L266.56 40.69Q266.56 42.77 266.17 44.27L266.17 44.27L246.28 44.27Q246.53 49.86 249.23 52.65Q251.93 55.45 256.03 55.45L256.03 55.45Q258.88 55.45 260.87 54.31Q262.85 53.17 264.48 51.35L264.48 51.35L266.36 53.04Q264.48 56.62 261.19 58.60Q257.91 60.58 253.36 60.58ZM285.62 59.67L268.78 59.67L268.78 57.01L273.20 56.16Q273.27 53.69 273.30 50.96Q273.33 48.23 273.33 46.02L273.33 46.02L273.33 18.13L268.59 17.48L268.59 14.95L280.42 12.02L281.39 12.61L281.13 21.77L281.13 43.16L291.92 32.24L287.05 31.27L287.11 28.54L302.45 28.54L302.45 31.27L296.54 32.11L289.97 38.48L299.98 56.09L304.21 57.01L304.21 59.67L293.22 59.67L284.51 43.81L281.13 47.13Q281.13 49.34 281.16 51.71Q281.20 54.08 281.26 56.23L281.26 56.23L285.62 57.01L285.62 59.67ZM315.40 60.58L315.40 60.58Q312.41 60.58 309.91 59.90Q307.41 59.22 304.94 57.85L304.94 57.85L304.87 50.31L309.23 50.31L310.40 56.36Q312.74 57.33 315.47 57.33L315.47 57.33Q318.78 57.33 320.41 56.16Q322.03 54.99 322.03 52.91L322.03 52.91Q322.03 51.09 320.73 49.95Q319.43 48.81 316.31 47.78L316.31 47.78L313.06 46.67Q309.42 45.50 307.31 43.23Q305.20 40.95 305.20 37.51L305.20 37.51Q305.20 34.78 306.63 32.53Q308.06 30.29 310.82 28.96Q313.58 27.63 317.55 27.63L317.55 27.63Q320.34 27.63 322.65 28.31Q324.96 28.99 327.23 30.29L327.23 30.29L326.91 37.12L322.62 37.12L321.45 31.66Q319.63 30.88 317.42 30.88L317.42 30.88Q314.82 30.88 313.39 31.98Q311.96 33.09 311.96 34.97L311.96 34.97Q311.96 36.73 313.16 37.80Q314.36 38.87 317.68 39.98L317.68 39.98L320.28 40.76Q325.02 42.38 327.04 44.79Q329.05 47.19 329.05 50.57L329.05 50.57Q329.05 54.93 325.51 57.75Q321.97 60.58 315.40 60.58ZM346.88 30.75L346.88 30.75Q345.32 30.75 343.79 31.75Q342.26 32.76 341.19 35.03Q340.12 37.31 339.86 41.21L339.86 41.21L348.76 41.21Q351.10 41.21 351.88 40.23Q352.66 39.26 352.66 37.51L352.66 37.51Q352.66 34.52 350.97 32.63Q349.28 30.75 346.88 30.75ZM346.88 60.58L346.88 60.58Q342.33 60.58 338.88 58.63Q335.44 56.68 333.49 53.01Q331.54 49.34 331.54 44.27L331.54 44.27Q331.54 39.06 333.78 35.33Q336.02 31.59 339.63 29.61Q343.24 27.63 347.33 27.63L347.33 27.63Q351.17 27.63 354.03 29.25Q356.89 30.88 358.48 33.80Q360.07 36.73 360.07 40.69L360.07 40.69Q360.07 42.77 359.68 44.27L359.68 44.27L339.79 44.27Q340.05 49.86 342.75 52.65Q345.45 55.45 349.54 55.45L349.54 55.45Q352.40 55.45 354.38 54.31Q356.37 53.17 357.99 51.35L357.99 51.35L359.88 53.04Q357.99 56.62 354.71 58.60Q351.43 60.58 346.88 60.58ZM378.55 59.67L362.49 59.67L362.49 57.01L366.78 56.16Q366.85 53.76 366.85 50.93Q366.85 48.10 366.85 46.02L366.85 46.02L366.85 18.13L362.10 17.48L362.10 14.95L373.74 12.02L374.71 12.61L374.45 21.77L374.45 33.41Q379.46 27.63 385.57 27.63L385.57 27.63Q389.79 27.63 392.13 30.42Q394.47 33.22 394.47 39.26L394.47 39.26L394.47 46.02Q394.47 48.23 394.47 51.03Q394.47 53.82 394.54 56.23L394.54 56.23L398.50 57.01L398.50 59.67L382.45 59.67L382.45 57.01L386.61 56.16Q386.67 53.76 386.67 50.99Q386.67 48.23 386.67 46.02L386.67 46.02L386.67 39.84Q386.67 36.01 385.66 34.55Q384.66 33.09 382.19 33.09L382.19 33.09Q378.55 33.09 374.65 36.79L374.65 36.79L374.65 46.02Q374.65 48.16 374.65 50.96Q374.65 53.76 374.71 56.23L374.71 56.23L378.55 57.01L378.55 59.67ZM398.71 75.47L398.71 75.47Q395.53 75.47 393.80 74.17Q392.08 72.87 391.69 71.37L391.69 71.37Q392.02 69.62 393.35 68.67Q394.68 67.73 396.31 67.73L396.31 67.73Q399.23 67.73 401.70 70.59L401.70 70.59L402.81 71.83Q403.07 71.50 403.29 71.05Q403.52 70.59 403.65 70.07L403.65 70.07Q404.37 67.92 404.43 63.73Q404.50 59.54 404.50 53.63L404.50 53.63L404.50 42.97Q404.50 40.30 404.46 38.51Q404.43 36.73 404.30 34.78L404.30 34.78L399.75 34.19L399.75 31.72L411.32 27.63L412.36 28.28L412.17 37.44L412.17 54.60Q412.17 59.22 411.84 62.37Q411.52 65.52 410.61 67.70Q409.70 69.88 408.01 71.56L408.01 71.56Q405.93 73.64 403.65 74.56Q401.38 75.47 398.71 75.47ZM408.33 21.58L408.33 21.58Q406.32 21.58 404.85 20.28Q403.39 18.98 403.39 16.97L403.39 16.97Q403.39 14.88 404.85 13.59Q406.32 12.28 408.33 12.28L408.33 12.28Q410.41 12.28 411.84 13.59Q413.27 14.88 413.27 16.97L413.27 16.97Q413.27 18.98 411.84 20.28Q410.41 21.58 408.33 21.58ZM432.92 30.75L432.92 30.75Q431.36 30.75 429.83 31.75Q428.30 32.76 427.23 35.03Q426.16 37.31 425.90 41.21L425.90 41.21L434.80 41.21Q437.14 41.21 437.92 40.23Q438.70 39.26 438.70 37.51L438.70 37.51Q438.70 34.52 437.01 32.63Q435.32 30.75 432.92 30.75ZM432.92 60.58L432.92 60.58Q428.37 60.58 424.92 58.63Q421.48 56.68 419.53 53.01Q417.58 49.34 417.58 44.27L417.58 44.27Q417.58 39.06 419.82 35.33Q422.06 31.59 425.67 29.61Q429.28 27.63 433.37 27.63L433.37 27.63Q437.21 27.63 440.07 29.25Q442.93 30.88 444.52 33.80Q446.11 36.73 446.11 40.69L446.11 40.69Q446.11 42.77 445.72 44.27L445.72 44.27L425.83 44.27Q426.09 49.86 428.79 52.65Q431.49 55.45 435.58 55.45L435.58 55.45Q438.44 55.45 440.42 54.31Q442.41 53.17 444.03 51.35L444.03 51.35L445.92 53.04Q444.03 56.62 440.75 58.60Q437.47 60.58 432.92 60.58ZM465.24 59.67L448.34 59.67L448.34 57.01L452.76 56.16Q452.82 53.63 452.85 51.09Q452.89 48.55 452.89 46.02L452.89 46.02L452.89 18.13L448.14 17.48L448.14 14.95L459.97 12.02L460.95 12.61L460.69 21.77L460.69 46.02Q460.69 48.55 460.72 51.09Q460.75 53.63 460.82 56.16L460.82 56.16L465.24 57.01L465.24 59.67ZM484.30 74.81L466.88 74.81L466.88 72.15L471.30 71.31Q471.36 68.45 471.39 65.81Q471.43 63.18 471.43 60.71L471.43 60.71L471.43 42.58Q471.43 39.91 471.39 38.32Q471.36 36.73 471.23 34.78L471.23 34.78L466.68 34.19L466.68 31.72L477.47 27.63L478.51 28.28L478.84 32.24Q483.26 27.63 488.59 27.63L488.59 27.63Q492.10 27.63 494.96 29.54Q497.82 31.46 499.47 35.10Q501.13 38.74 501.13 43.94L501.13 43.94Q501.13 49.08 499.28 52.81Q497.43 56.55 494.37 58.57Q491.32 60.58 487.55 60.58L487.55 60.58Q485.14 60.58 483.06 59.67Q480.98 58.76 479.10 56.75L479.10 56.75L479.10 60.65Q479.10 63.05 479.13 65.68Q479.16 68.31 479.23 71.17L479.23 71.17L484.30 72.15L484.30 74.81ZM485.53 32.24L485.53 32.24Q484.04 32.24 482.51 33.02Q480.98 33.80 479.29 35.10L479.29 35.10L479.29 53.50Q482.02 56.03 485.08 56.03L485.08 56.03Q488.33 56.03 490.57 53.20Q492.81 50.38 492.81 44.33L492.81 44.33Q492.81 38.35 490.80 35.30Q488.78 32.24 485.53 32.24Z" transform="translate(0, 0)"></path></g></svg></svg>
</g>
</svg>